<svg width="1440" height="2360" viewBox="0 0 1440 2360" fill="none" xmlns="http://www.w3.org/2000/svg">
  <defs>
    <style>
      .display { font-family: "Playfair Display", Georgia, serif; }
      .body { font-family: Inter, Arial, sans-serif; }
      .smallcaps { font-family: Inter, Arial, sans-serif; font-size: 14px; font-weight: 700; letter-spacing: 3.4px; text-transform: uppercase; }
      .bodycopy { font-family: Inter, Arial, sans-serif; font-size: 20px; line-height: 1.65; fill: #5f5a52; }
      .caption { font-family: Inter, Arial, sans-serif; font-size: 15px; line-height: 1.5; }
    </style>
    <filter id="softShadow" x="-20%" y="-20%" width="140%" height="140%">
      <feDropShadow dx="0" dy="26" stdDeviation="24" flood-color="#302418" flood-opacity="0.12"/>
    </filter>
    <filter id="darkShadow" x="-20%" y="-20%" width="140%" height="140%">
      <feDropShadow dx="0" dy="30" stdDeviation="30" flood-color="#111111" flood-opacity="0.24"/>
    </filter>
    <clipPath id="heroClip"><rect x="520" y="168" width="356" height="650" rx="32"/></clipPath>
    <clipPath id="featured1"><rect x="960" y="340" width="104" height="104" rx="18"/></clipPath>
    <clipPath id="featured2"><rect x="960" y="476" width="104" height="104" rx="18"/></clipPath>
    <clipPath id="featured3"><rect x="960" y="612" width="104" height="104" rx="18"/></clipPath>
    <clipPath id="card1"><rect x="96" y="1016" width="334" height="250" rx="24"/></clipPath>
    <clipPath id="card2"><rect x="554" y="1016" width="334" height="250" rx="24"/></clipPath>
    <clipPath id="card3"><rect x="1012" y="1016" width="334" height="250" rx="24"/></clipPath>
    <clipPath id="card4"><rect x="96" y="1460" width="334" height="250" rx="24"/></clipPath>
    <clipPath id="card5"><rect x="554" y="1460" width="334" height="250" rx="24"/></clipPath>
    <clipPath id="card6"><rect x="1012" y="1460" width="334" height="250" rx="24"/></clipPath>
    <clipPath id="lookbookLarge"><rect x="72" y="1868" width="624" height="360" rx="28"/></clipPath>
    <clipPath id="lookbookSmall1"><rect x="728" y="1868" width="300" height="168" rx="28"/></clipPath>
    <clipPath id="lookbookSmall2"><rect x="728" y="2060" width="300" height="168" rx="28"/></clipPath>
  </defs>

  <rect width="1440" height="2360" fill="#F6F1E8"/>
  <circle cx="120" cy="90" r="260" fill="#FFFFFF" opacity="0.72"/>
  <circle cx="1230" cy="120" r="240" fill="#B98643" opacity="0.12"/>

  <!-- Header -->
  <text x="72" y="72" class="display" fill="#171717" font-size="26" font-weight="600">Abegail Collective</text>
  <text x="1112" y="70" class="body" fill="#5F5A52" font-size="15" font-weight="600">Shop</text>
  <text x="1176" y="70" class="body" fill="#5F5A52" font-size="15" font-weight="600">Lookbook</text>
  <text x="1272" y="70" class="body" fill="#5F5A52" font-size="15" font-weight="600">Story</text>

  <!-- Hero left -->
  <rect x="72" y="190" width="220" height="48" rx="24" fill="#FFFAF2" opacity="0.88"/>
  <rect x="72.5" y="190.5" width="219" height="47" rx="23.5" stroke="#C8A46E" stroke-opacity="0.45"/>
  <text x="96" y="221" class="body" fill="#8A5A1F" font-size="16" font-weight="600">New season collection</text>

  <text x="72" y="328" class="display" fill="#171717" font-size="76" font-weight="500">Abegail</text>
  <text x="72" y="406" class="display" fill="#171717" font-size="76" font-weight="500">Collective</text>
  <rect x="72" y="452" width="58" height="3" fill="#B98643"/>
  <text x="72" y="516" class="body" fill="#5F5A52" font-size="22">
    <tspan x="72" dy="0">A modern clothing collective for confidence, comfort,</tspan>
    <tspan x="72" dy="34">and everyday style. Discover curated pieces, bold</tspan>
    <tspan x="72" dy="34">palettes, and a premium shopping experience.</tspan>
  </text>
  <rect x="72" y="660" width="204" height="54" rx="27" fill="#111111"/>
  <text x="105" y="694" class="body" fill="#FFFAF2" font-size="16" font-weight="700">Explore collection</text>
  <rect x="294" y="660" width="172" height="54" rx="27" fill="#FFFAF2" opacity="0.78"/>
  <rect x="294.5" y="660.5" width="171" height="53" rx="26.5" stroke="#171717" stroke-opacity="0.18"/>
  <text x="333" y="694" class="body" fill="#171717" font-size="16" font-weight="700">Lookbook</text>

  <text x="72" y="804" class="display" fill="#171717" font-size="36" font-weight="600">06</text>
  <text x="72" y="834" class="smallcaps" fill="#8A5A1F">Looks</text>
  <text x="190" y="804" class="display" fill="#171717" font-size="36" font-weight="600">24</text>
  <text x="190" y="834" class="smallcaps" fill="#8A5A1F">Hour style</text>
  <text x="348" y="804" class="display" fill="#171717" font-size="36" font-weight="600">03</text>
  <text x="348" y="834" class="smallcaps" fill="#8A5A1F">Core moods</text>

  <!-- Hero image and featured panel -->
  <rect x="520" y="168" width="356" height="650" rx="32" fill="#E8D9C7" filter="url(#softShadow)"/>
  <image href="../public/images/image1.jpg" x="520" y="168" width="356" height="650" preserveAspectRatio="xMidYMid slice" clip-path="url(#heroClip)"/>

  <rect x="920" y="168" width="448" height="650" rx="32" fill="#111111" filter="url(#darkShadow)"/>
  <text x="960" y="236" class="smallcaps" fill="#C9954F">Featured drop</text>
  <text x="960" y="306" class="display" fill="#FFFAF2" font-size="44" font-weight="500">
    <tspan x="960" dy="0">New silhouettes</tspan>
    <tspan x="960" dy="52">for every mood</tspan>
  </text>
  <text x="960" y="400" class="body" fill="#D8D0C6" font-size="17">
    <tspan x="960" dy="0">Elevated everyday essentials and statement</tspan>
    <tspan x="960" dy="26">pieces made for life on the move.</tspan>
  </text>

  <rect x="944" y="320" width="384" height="128" rx="20" fill="#FFFFFF" opacity="0.06"/>
  <image href="../public/images/image1.jpg" x="960" y="340" width="104" height="104" preserveAspectRatio="xMidYMid slice" clip-path="url(#featured1)"/>
  <text x="1090" y="368" class="smallcaps" fill="#C9954F">Tailoring</text>
  <text x="1090" y="404" class="body" fill="#FFFFFF" font-size="20" font-weight="700">Violet Blazer Edit</text>
  <text x="1090" y="432" class="caption" fill="#D8D0C6">Sharp color statement.</text>

  <rect x="944" y="456" width="384" height="128" rx="20" fill="#FFFFFF" opacity="0.06"/>
  <image href="../public/images/image2.jpg" x="960" y="476" width="104" height="104" preserveAspectRatio="xMidYMid slice" clip-path="url(#featured2)"/>
  <text x="1090" y="504" class="smallcaps" fill="#C9954F">Outerwear</text>
  <text x="1090" y="540" class="body" fill="#FFFFFF" font-size="20" font-weight="700">Cloud Puffer Jacket</text>
  <text x="1090" y="568" class="caption" fill="#D8D0C6">Soft volume, clean lines.</text>

  <rect x="944" y="592" width="384" height="128" rx="20" fill="#FFFFFF" opacity="0.06"/>
  <image href="../public/images/image3.jpg" x="960" y="612" width="104" height="104" preserveAspectRatio="xMidYMid slice" clip-path="url(#featured3)"/>
  <text x="1090" y="640" class="smallcaps" fill="#C9954F">Dresses</text>
  <text x="1090" y="676" class="body" fill="#FFFFFF" font-size="20" font-weight="700">Sunlit Shirt Dress</text>
  <text x="1090" y="704" class="caption" fill="#D8D0C6">Lightweight polish.</text>

  <!-- Shop section -->
  <rect x="48" y="910" width="1344" height="880" rx="32" fill="#FFFAF2" opacity="0.9" filter="url(#softShadow)"/>
  <text x="96" y="982" class="smallcaps" fill="#8A5A1F">Shop by look</text>
  <text x="96" y="1030" class="display" fill="#171717" font-size="42" font-weight="500">Modern essentials for the season</text>
  <text x="800" y="984" class="body" fill="#5F5A52" font-size="17">
    <tspan x="800" dy="0">A refined selection of wardrobe staples and statement pieces,</tspan>
    <tspan x="800" dy="28">designed to feel premium with every wear.</tspan>
  </text>

  <g filter="url(#softShadow)">
    <rect x="72" y="1090" width="382" height="306" rx="24" fill="#FFFFFF"/>
    <image href="../public/images/image1.jpg" x="96" y="1114" width="334" height="180" preserveAspectRatio="xMidYMid slice" clip-path="url(#card1)"/>
    <text x="96" y="1335" class="body" fill="#171717" font-size="21" font-weight="700">Violet Blazer Edit</text>
    <text x="382" y="1335" class="body" fill="#8A5A1F" font-size="17" font-weight="700">₱350</text>
    <text x="96" y="1368" class="caption" fill="#5F5A52">A sharp color statement with relaxed denim ease.</text>

    <rect x="530" y="1090" width="382" height="306" rx="24" fill="#FFFFFF"/>
    <image href="../public/images/image2.jpg" x="554" y="1114" width="334" height="180" preserveAspectRatio="xMidYMid slice" clip-path="url(#card2)"/>
    <text x="554" y="1335" class="body" fill="#171717" font-size="21" font-weight="700">Cloud Puffer Jacket</text>
    <text x="842" y="1335" class="body" fill="#8A5A1F" font-size="17" font-weight="700">₱490</text>
    <text x="554" y="1368" class="caption" fill="#5F5A52">Soft volume, clean lines, and winter-ready profile.</text>

    <rect x="988" y="1090" width="382" height="306" rx="24" fill="#FFFFFF"/>
    <image href="../public/images/image3.jpg" x="1012" y="1114" width="334" height="180" preserveAspectRatio="xMidYMid slice" clip-path="url(#card3)"/>
    <text x="1012" y="1335" class="body" fill="#171717" font-size="21" font-weight="700">Sunlit Shirt Dress</text>
    <text x="1302" y="1335" class="body" fill="#8A5A1F" font-size="17" font-weight="700">₱200</text>
    <text x="1012" y="1368" class="caption" fill="#5F5A52">Lightweight polish for warm days and plans.</text>

    <rect x="72" y="1534" width="382" height="306" rx="24" fill="#FFFFFF"/>
    <image href="../public/images/image4.jpg" x="96" y="1558" width="334" height="180" preserveAspectRatio="xMidYMid slice" clip-path="url(#card4)"/>
    <text x="96" y="1779" class="body" fill="#171717" font-size="21" font-weight="700">Studio Denim Coat</text>
    <text x="382" y="1779" class="body" fill="#8A5A1F" font-size="17" font-weight="700">₱300</text>

    <rect x="530" y="1534" width="382" height="306" rx="24" fill="#FFFFFF"/>
    <image href="../public/images/image5.jpg" x="554" y="1558" width="334" height="180" preserveAspectRatio="xMidYMid slice" clip-path="url(#card5)"/>
    <text x="554" y="1779" class="body" fill="#171717" font-size="21" font-weight="700">Alpine Cropped Puffer</text>
    <text x="842" y="1779" class="body" fill="#8A5A1F" font-size="17" font-weight="700">₱150</text>

    <rect x="988" y="1534" width="382" height="306" rx="24" fill="#FFFFFF"/>
    <image href="../public/images/image6.jpg" x="1012" y="1558" width="334" height="180" preserveAspectRatio="xMidYMid slice" clip-path="url(#card6)"/>
    <text x="1012" y="1779" class="body" fill="#171717" font-size="21" font-weight="700">Signal Color Suiting</text>
    <text x="1302" y="1779" class="body" fill="#8A5A1F" font-size="17" font-weight="700">₱250</text>
  </g>

  <!-- Lookbook -->
  <text x="72" y="1914" class="smallcaps" fill="#8A5A1F">Lookbook</text>
  <text x="72" y="1962" class="display" fill="#171717" font-size="42" font-weight="500">Editorial crops with full-image focus</text>
  <image href="../public/images/image5.jpg" x="72" y="2010" width="624" height="300" preserveAspectRatio="xMidYMid slice" clip-path="url(#lookbookLarge)"/>
  <image href="../public/images/image4.jpg" x="728" y="2010" width="300" height="142" preserveAspectRatio="xMidYMid slice" clip-path="url(#lookbookSmall1)"/>
  <image href="../public/images/image6.jpg" x="728" y="2172" width="300" height="138" preserveAspectRatio="xMidYMid slice" clip-path="url(#lookbookSmall2)"/>

  <!-- Story panel -->
  <rect x="1060" y="1900" width="308" height="410" rx="32" fill="#111111" filter="url(#darkShadow)"/>
  <text x="1100" y="1968" class="smallcaps" fill="#C9954F">Our approach</text>
  <text x="1100" y="2030" class="display" fill="#FFFAF2" font-size="34" font-weight="500">
    <tspan x="1100" dy="0">A collective</tspan>
    <tspan x="1100" dy="42">built for modern</tspan>
    <tspan x="1100" dy="42">style.</tspan>
  </text>
  <text x="1100" y="2188" class="caption" fill="#D8D0C6">
    <tspan x="1100" dy="0">Curated drops, premium basics,</tspan>
    <tspan x="1100" dy="25">and modern details for refined</tspan>
    <tspan x="1100" dy="25">everyday wear.</tspan>
  </text>
</svg>
